<?xml version="1.0" encoding="utf-8"?>
<!-- Generator: Adobe Illustrator 15.0.0, SVG Export Plug-In . SVG Version: 6.00 Build 0)  -->
<!DOCTYPE svg PUBLIC "-//W3C//DTD SVG 1.1//EN" "http://www.w3.org/Graphics/SVG/1.1/DTD/svg11.dtd">
<svg version="1.1" id="dartboard" xmlns="http://www.w3.org/2000/svg" xmlns:xlink="http://www.w3.org/1999/xlink" x="0px" y="0px"
	 width="787px" height="774px" viewBox="0 0 787 774" enable-background="new 0 0 787 774" xml:space="preserve">
<g id="areas">
	<g id="s">
		<path id="is19" fill="#F7E9CD" d="M327.95,561.926c-1.952-0.825-3.879-1.692-5.795-2.581l66.1-138.905
			c2.034,0.8,4.2,1.5,6.4,1.884L374.688,574.84C358.626,572.6,343,568.3,327.9,561.926H327.95z"/>
		<path id="os19" fill="#F7E9CD" d="M358.729,696.9l13.365-102.239c-17.849-2.479-35.232-7.257-51.936-14.321
			c-2.226-0.94-4.422-1.932-6.605-2.945l-44.31,93.101c3.562,1.7,7.2,3.3,10.8,4.827C305.328,686.1,331.7,693.3,358.7,696.928
			L358.729,696.9z"/>
		<path id="is14" d="M215.161,362.688c2.248-16.062,6.555-31.707,12.914-46.739c0.825-1.952,1.693-3.879,2.581-5.796l138.906,66.1
			c-0.827,2.034-1.463,4.165-1.884,6.372L215.161,362.688z"/>
		<path id="os14" d="M93.073,346.728l102.239,13.366c2.479-17.849,7.256-35.233,14.321-51.936c0.941-2.225,1.932-4.422,2.945-6.605
			l-93.115-44.31c-1.667,3.562-3.29,7.15-4.828,10.8C103.936,293.3,96.7,319.7,93.1,346.728H93.073z"/>
		<path id="is4" fill="#F7E9CD" d="M533.705,256.295c12.354,12.4,22.8,26.2,31.2,41.238l-135.129,73.5
			c-1.181-1.886-2.539-3.646-4.055-5.26l105.771-111.661c0.745,0.788,1.508,1.488,2.208,2.183H533.705z"/>
		<path id="os4" fill="#F7E9CD" d="M620.759,169.2c-1.515-1.515-3.051-3.004-4.592-4.484l-70.903,74.852
			c0.869,0.8,1.7,1.7,2.601,2.5c13.724,13.7,25.3,29.1,34.6,45.823l90.58-49.287C659.04,213.3,641.5,190,620.8,169.241
			L620.759,169.2z"/>
		<path id="is16" fill="#F7E9CD" d="M268.295,521.705c-12.355-12.355-22.796-26.175-31.207-41.238l135.129-73.527
			c1.18,1.899,2.5,3.6,4.101,5.26L270.547,523.86c-0.784-0.761-1.547-1.46-2.247-2.155H268.295z"/>
		<path id="os16" fill="#F7E9CD" d="M185.833,613.2l70.903-74.853c-0.868-0.84-1.738-1.678-2.594-2.532
			c-13.724-13.726-25.313-29.081-34.638-45.823l-90.58,49.3c14.036,25.4,31.5,48.7,52.3,69.437c1.532,1.571,3.076,3.071,4.576,4.515
			L185.833,613.2z"/>
		<path id="is9" fill="#F7E9CD" d="M232.372,306.542c8.066-16.491,18.461-31.617,31.017-45.137l111.66,105.8
			c-1.425,1.691-2.688,3.522-3.766,5.471L232.372,306.542z"/>
		<path id="os9" fill="#F7E9CD" d="M214.294,297.938c8.97-18.388,20.556-35.244,34.564-50.298l-74.848-70.898
			c-21.495,22.955-39.214,48.724-52.84,76.883L214.294,297.938z"/>
		<path id="is7" d="M318.542,557.628c-16.491-8.065-31.616-18.461-45.137-31.017l105.769-111.66c1.691,1.399,3.5,2.7,5.5,3.8
			L318.542,557.628z"/>
		<path id="os7" d="M309.939,575.706c-18.389-8.97-35.246-20.556-50.299-34.564l-70.898,74.801c22.955,21.5,48.7,39.199,76.9,52.84
			L309.939,575.706z"/>
		<path id="is8" d="M228.074,462.051c-5.027-11.887-8.772-24.156-11.234-36.711l151.229-28.172c0.54,2.2,1.3,4.3,2.2,6.3
			l-135.125,73.525c-2.542-4.894-4.945-9.894-7.045-14.942H228.074z"/>
		<path id="os8" d="M127.005,535.812l90.584-49.29c-2.885-5.425-5.546-10.981-7.956-16.682
			c-5.592-13.221-9.749-26.869-12.473-40.836L95.789,447.9c4.072,21.199,10.3,42,18.8,62.082c3.784,8.817,7.911,17.418,12.411,25.83
			H127.005z"/>
		<path id="is12" d="M268.295,256.295c12.355-12.356,26.175-22.796,41.238-31.207l73.527,135.1c-1.885,1.18-3.646,2.539-5.259,4.054
			L266.14,258.472c0.715-0.672,1.46-1.472,2.16-2.177H268.295z"/>
		<path id="os12" d="M176.756,173.8l74.853,70.903c0.839-0.868,1.677-1.738,2.533-2.594c13.724-13.724,29.08-25.313,45.823-34.639
			l-49.287-90.58c-25.392,14.036-48.663,31.543-69.437,52.317c-1.515,1.593-3.041,3.093-4.441,4.626L176.756,173.8z"/>
		<path id="is1" fill="#F7E9CD" d="M479.846,218.655l-66.101,138.907c-2.034-0.828-4.165-1.463-6.372-1.884l19.939-152.517
			c16.062,2.2,31.699,6.6,46.699,12.914c1.99,0.825,3.889,1.725,5.788,2.58H479.846z"/>
		<path id="os1" fill="#F7E9CD" d="M443.271,81.073l-13.364,102.2c17.849,2.5,35.2,7.3,51.899,14.321c2.226,0.9,4.4,1.9,6.601,2.945
			l44.31-93.115c-3.562-1.667-7.149-3.29-10.786-4.828C496.672,91.9,470.3,84.7,443.3,81.073H443.271z"/>
		<path id="is18" d="M483.458,220.372c16.491,8.1,31.6,18.5,45.1,31.017l-105.769,111.7c-1.691-1.425-3.522-2.689-5.472-3.766
			L483.458,220.372z"/>
		<path id="os18" d="M492.061,202.294c18.389,9,35.2,20.6,50.301,34.564l70.897-74.847c-22.955-21.496-48.725-39.215-76.883-52.84
			L492.061,202.294z"/>
		<path id="is20" d="M401,201.327c7.521,0,15,0.4,22.3,1.319l-19.938,152.518c-0.796-0.056-1.597-0.095-2.406-0.095
			c-1.435,0-2.846,0.1-4.235,0.274L368.55,204.107C379.217,202.3,390,201.3,401,201.327z"/>
		<path id="os20" d="M346.042,83.046l18.884,101.4c11.825-2.069,23.87-3.111,36.074-3.111c8.396,0,16.7,0.5,24.9,1.484
			l13.366-102.25c-12.629-1.547-25.407-2.331-38.308-2.331C382.4,78.2,364.1,79.8,346,83.046H346.042z"/>
		<path id="is5" fill="#F7E9CD" d="M327.95,216.074c11.887-5.028,24.156-8.772,36.711-11.234l28.17,151.2
			c-2.177,0.54-4.271,1.29-6.26,2.229l-73.525-135.124c4.849-2.545,9.854-4.945,14.854-7.071H327.95z"/>
		<path id="os5" fill="#F7E9CD" d="M254.187,115l49.29,90.584c5.423-2.885,10.982-5.546,16.681-7.956
			c13.221-5.592,26.87-9.749,40.837-12.473L342.112,83.8c-21.24,4.071-41.993,10.35-62.083,18.848
			c-8.836,3.752-17.429,7.852-25.829,12.357L254.187,115z"/>
		<path id="is3" d="M401,576.674c-7.52,0-14.968-0.448-22.335-1.317l19.936-152.52c0.794,0.101,1.601,0.101,2.4,0.101
			c1.432,0,2.84-0.101,4.226-0.272l28.165,151.237C422.771,575.7,412,576.7,401,576.674z"/>
		<path id="os3" d="M455.938,694.958l-18.881-101.377c-11.818,2.065-23.857,3.108-36.057,3.108c-8.393,0-16.708-0.504-24.93-1.482
			l-13.365,102.2c12.625,1.5,25.4,2.3,38.3,2.329c18.588,0.063,36.896-1.536,54.896-4.778H455.938z"/>
		<path id="is10" d="M586.84,415.312c-2.248,16.062-6.556,31.704-12.914,46.737c-0.825,1.951-1.692,3.879-2.581,5.8l-138.905-66.101
			c0.827-2.034,1.463-4.166,1.884-6.373L586.84,415.312z"/>
		<path id="os10" d="M708.928,431.272l-102.238-13.365c-2.479,17.849-7.258,35.23-14.321,51.935
			c-0.941,2.227-1.933,4.423-2.945,6.606l93.114,44.3c1.667-3.562,3.289-7.15,4.827-10.786c10.7-25.262,17.936-51.662,21.536-78.689
			H708.928z"/>
		<path id="is17" fill="#F7E9CD" d="M474.051,561.926c-11.888,5.027-24.157,8.772-36.712,11.234l-28.171-151.229
			c2.178-0.541,4.271-1.291,6.261-2.229l73.525,135.124c-4.849,2.574-9.854,4.974-14.854,7.1H474.051z"/>
		<path id="os17" fill="#F7E9CD" d="M547.812,663l-49.291-90.584c-5.424,2.885-10.98,5.546-16.681,7.956
			c-13.222,5.592-26.87,9.748-40.837,12.473l18.883,101.4c21.241-4.072,41.993-10.351,62.084-18.849
			c8.836-3.797,17.43-7.896,25.829-12.401L547.812,663z"/>
		<path id="is13" d="M573.926,315.95c5.027,11.9,8.8,24.2,11.2,36.711l-151.229,28.17c-0.541-2.177-1.291-4.271-2.229-6.26
			l135.123-73.525c2.605,4.854,5.009,9.854,7.109,14.904H573.926z"/>
		<path id="os13" d="M674.995,242.188l-90.584,49.3c2.885,5.4,5.5,11,8,16.681c5.592,13.2,9.7,26.9,12.5,40.837l101.372-18.883
			c-4.072-21.24-10.352-41.992-18.85-62.083c-3.807-8.84-7.934-17.44-12.434-25.852H674.995z"/>
		<path id="is2" d="M533.705,521.705c-12.355,12.354-26.175,22.797-41.238,31.207l-73.527-135.129
			c1.886-1.181,3.646-2.539,5.26-4.055L535.86,519.499c-0.716,0.701-1.46,1.501-2.16,2.206H533.705z"/>
		<path id="os2" d="M625.243,604.167l-74.853-70.902c-0.84,0.868-1.678,1.738-2.532,2.595
			c-13.726,13.724-29.081,25.312-45.823,34.639l49.287,90.6c25.391-14.035,48.662-31.543,69.437-52.316
			c1.515-1.581,3.041-3.081,4.441-4.614H625.243z"/>
		<path id="is6" fill="#F7E9CD" d="M434.658,384.765l151.234-28.172c1.848,10.6,2.801,21.4,2.801,32.4
			c0,7.521-0.448,14.975-1.319,22.345L434.856,391.4c0.056-0.797,0.095-1.596,0.095-2.406c-0.02-1.395-0.151-2.794-0.251-4.229
			H434.658z"/>
		<path id="os6" fill="#F7E9CD" d="M605.578,352.926c2.068,11.8,3.1,23.9,3.1,36.1c0,8.396-0.503,16.716-1.483,24.94l102.251,13.367
			c1.546-12.629,2.33-25.408,2.33-38.308c0-18.601-1.623-36.95-4.832-54.958L605.578,352.926z"/>
		<path id="os11" fill="#F7E9CD" d="M95.046,443.96c-3.209-18.009-4.833-36.359-4.833-54.96c0-12.899,0.784-25.678,2.331-38.307
			l102.25,13.367c-0.981,8.225-1.484,16.544-1.484,24.94c0,12.2,1,24.2,3.1,36.075L95.046,443.96z"/>
		<path id="is11" fill="#F7E9CD" d="M367.069,389c0-0.811,0.039-1.61,0.095-2.406l-152.518-19.938
			c-0.871,7.37-1.319,14.823-1.319,22.345c0,11,0.9,21.8,2.8,32.4l151.236-28.173C367.169,391.8,367.1,390.4,367.1,389H367.069z"/>
		<path id="is15" fill="#F7E9CD" d="M569.628,471.458c-8.065,16.491-18.461,31.616-31.017,45.138L426.952,410.8
			c1.425-1.69,2.688-3.521,3.766-5.471L569.628,471.458z"/>
		<path id="os15" fill="#F7E9CD" d="M587.706,480.062c-8.97,18.388-20.556,35.243-34.564,50.299l74.848,70.899
			c21.496-22.955,39.216-48.725,52.841-76.883L587.706,480.062z"/>
	</g>
	<g id="d">
		<path id="d2" fill="#ED3737" d="M622.88,610.88c-20.979,20.979-44.48,38.659-70.124,52.831l7.533,13.8
			c30.7-16.898,54.398-35.119,78.62-60.442l-11.488-10.883c-1.499,1.614-3.021,3.114-4.521,4.694H622.88z"/>
		<path id="d17" fill="#4F9962" d="M523.14,678.127c-20.291,8.582-41.251,14.923-62.702,19.034l2.887,15.5
			c34.421-6.584,62.59-16.587,93.452-33.187l-7.529-13.838c-8.479,4.563-17.147,8.764-26.147,12.49H523.14z"/>
		<path id="d15" fill="#4F9962" d="M630.166,603.32l11.494,10.888c23.974-25.555,40.883-50.205,56.096-81.778l-14.218-6.766
			C669.777,554.1,651.9,580.1,630.2,603.32H630.166z"/>
		<path id="d6" fill="#4F9962" d="M725.388,330.608l-15.483,2.884c3.242,18.2,4.899,36.7,4.899,55.5
			c0,13.03-0.792,25.938-2.354,38.695l15.643,2.046C732.446,395,731.6,365.1,725.4,330.608H725.388z"/>
		<path id="d14" fill="#ED3737" d="M111.874,266.859c1.555-3.676,3.195-7.305,4.881-10.906l-14.23-6.771
			c-14.904,31.716-23.368,60.385-28.08,95.111l15.653,2.046C93.802,319,101.1,292.4,111.9,266.859H111.874z"/>
		<path id="d10" fill="#ED3737" d="M690.127,511.14c-1.555,3.678-3.195,7.307-4.882,10.907l14.229,6.8
			c14.903-31.712,23.367-60.381,28.08-95.109l-15.651-2.046C708.198,459,700.9,485.6,690.1,511.14H690.127z"/>
		<path id="d11" fill="#4F9962" d="M87.214,389c0-13.03,0.792-25.938,2.355-38.696l-15.643-2.045
			c-4.373,34.77-3.564,64.7,2.7,99.134l15.485-2.885C88.854,426.3,87.2,407.8,87.2,389H87.214z"/>
		<path id="d19" fill="#4F9962" d="M278.859,678.127c-3.676-1.555-7.305-3.195-10.906-4.882l-6.771,14.2
			c31.715,14.899,60.4,23.399,95.1,28.08l2.046-15.652C331.017,696.2,304.4,688.9,278.9,678.127H278.859z"/>
		<path id="d8" fill="#ED3737" d="M111.874,511.14c-8.583-20.291-14.923-41.249-19.034-62.7l-15.494,2.899
			c6.585,34.4,16.6,62.601,33.2,93.45l13.837-7.529c-4.558-8.46-8.783-17.16-12.483-26.12H111.874z"/>
		<path id="d16" fill="#4F9962" d="M179.12,610.88c-20.979-20.979-38.658-44.479-52.831-70.124l-13.844,7.5
			c16.9,30.7,35.1,54.4,60.4,78.621l10.883-11.488c-1.519-1.488-3.028-2.988-4.628-4.509H179.12z"/>
		<path id="d7" fill="#ED3737" d="M186.679,618.167l-10.888,11.494c25.558,24,50.2,40.899,81.8,56.095l6.765-14.217
			C235.892,657.8,209.9,639.9,186.7,618.167H186.679z"/>
		<path id="d3" fill="#ED3737" d="M401,702.786c-13.026,0-25.93-0.792-38.684-2.354l-2.058,15.7c14.604,1.8,28.2,2.8,41.601,2.828
			c0.001,0,0,0,0,0c18.557,0,37.396-1.848,57.522-5.491l-2.905-15.602C438.306,701.1,419.8,702.8,401,702.786z"/>
		<path id="d1" fill="#4F9962" d="M523.14,99.874c3.678,1.6,7.301,3.2,10.9,4.882l6.771-14.23
			c-31.719-14.905-60.387-23.369-95.109-28.079l-2.046,15.652C470.984,81.8,497.6,89.1,523.1,99.874H523.14z"/>
		<path id="d20" fill="#ED3737" d="M401,75.214c13.03,0,25.9,0.8,38.7,2.355l2.045-15.642c-14.604-1.835-28.238-2.729-41.611-2.729
			c-18.558,0-37.395,1.771-57.521,5.416l2.884,15.5C363.681,76.9,382.2,75.2,401,75.214z"/>
		<path id="d18" fill="#ED3737" d="M615.32,159.833l10.888-11.494c-25.557-23.974-50.207-40.882-81.778-56.095l-6.766,14.2
			C566.107,120.2,592.1,138.1,615.3,159.833H615.32z"/>
		<path id="d5" fill="#4F9962" d="M278.859,99.874c20.292-8.583,41.251-14.923,62.704-19.034l-2.887-15.494
			c-34.42,6.584-62.589,16.588-93.452,33.188l7.529,13.836c8.478-4.57,17.147-8.77,26.147-12.496H278.859z"/>
		<path id="d12" fill="#ED3737" d="M179.12,167.12c20.979-20.979,44.48-38.658,70.124-52.831l-7.533-13.843
			c-30.701,16.9-54.399,35.119-78.621,60.442l11.489,10.882c1.499-1.57,3.021-3.07,4.521-4.65H179.12z"/>
		<path id="d9" fill="#4F9962" d="M171.833,174.679l-11.494-10.888c-23.975,25.557-40.883,50.207-56.095,81.779l14.218,6.8
			c13.761-28.47,31.638-54.47,53.338-77.691H171.833z"/>
		<path id="d4" fill="#4F9962" d="M622.88,167.12c20.979,21,38.7,44.5,52.8,70.124l13.844-7.532
			c-16.898-30.7-35.117-54.398-60.442-78.622l-10.883,11.489c1.593,1.521,3.102,3.021,4.702,4.541H622.88z"/>
		<path id="d13" fill="#ED3737" d="M690.127,266.859c8.582,20.3,14.9,41.3,19,62.703l15.494-2.886
			c-6.587-34.424-16.591-62.592-33.188-93.451l-13.836,7.529c4.579,8.446,8.804,17.146,12.503,26.105H690.127z"/>
	</g>
	<g id="t">
		<path id="t10" fill="#ED3737" d="M603.714,417.519l-13.898-1.816c-2.282,16.329-6.661,32.232-13.125,47.5
			c-0.844,1.992-1.729,3.96-2.637,5.917l12.659,6.022c0.994-2.145,1.967-4.301,2.891-6.484C596.562,452.2,601.3,435.1,603.7,417.519
			H603.714z"/>
		<path id="t13" fill="#ED3737" d="M581.775,292.911l-12.314,6.701c2.618,4.9,5,10,7.2,15.2c5.112,12.1,8.899,24.6,11.399,37.331
			l13.781-2.567c-2.685-13.755-6.778-27.197-12.287-40.217c-2.323-5.659-4.955-11.159-7.755-16.448H581.775z"/>
		<path id="t3" fill="#ED3737" d="M436.508,590.631l-2.566-13.784c-10.8,1.878-21.797,2.827-32.94,2.8
			c-7.649,0-15.229-0.455-22.724-1.343l-1.817,13.9c8.094,1,16.3,1.5,24.5,1.5c12.053-0.004,23.94-1.004,35.54-3.073H436.508z"/>
		<path id="t2" fill="#ED3737" d="M548.214,531.201l-10.177-9.639c-0.733,0.757-1.464,1.517-2.211,2.3
			c-12.562,12.561-26.61,23.173-41.926,31.721l6.699,12.314c16.491-9.188,31.617-20.604,45.138-34.124
			c0.837-0.873,1.663-1.674,2.463-2.572H548.214z"/>
		<path id="t8" fill="#ED3737" d="M220.225,485.089l12.315-6.701c-2.619-4.934-5.037-9.986-7.228-15.169
			c-5.113-12.087-8.919-24.562-11.421-37.329l-13.781,2.566c2.685,13.8,6.8,27.2,12.3,40.2c2.358,5.644,4.99,11.144,7.79,16.433
			H220.225z"/>
		<path id="t14" fill="#ED3737" d="M198.287,360.482l13.899,1.817c2.282-16.33,6.661-32.235,13.125-47.519
			c0.843-1.992,1.729-3.959,2.635-5.916l-12.659-6.024c-0.995,2.145-1.967,4.301-2.891,6.5c-6.958,16.46-11.696,33.56-14.096,51.142
			H198.287z"/>
		<path id="t7" fill="#ED3737" d="M317.252,560.337c-16.775-8.201-32.16-18.774-45.91-31.548l-9.639,10.2
			c14.825,13.8,31.4,25.2,49.5,34.033L317.252,560.337z"/>
		<path id="t9" fill="#4F9962" d="M229.663,305.252c8.202-16.776,18.775-32.161,31.548-45.911l-10.175-9.638
			c-13.792,14.825-25.199,31.421-34.033,49.525L229.663,305.252z"/>
		<path id="t4" fill="#4F9962" d="M543.201,241.787l-9.641,10.176c0.759,0.7,1.5,1.5,2.301,2.2
			c12.561,12.6,23.199,26.6,31.699,41.926l12.314-6.701c-9.188-16.491-20.604-31.617-34.124-45.136
			C544.9,243.4,544,242.6,543.201,241.787L543.201,241.787z"/>
		<path id="t17" fill="#4F9962" d="M497.088,569.775l-6.7-12.314c-4.934,2.619-9.986,5.037-15.169,7.2
			c-12.088,5.112-24.563,8.919-37.33,11.42l2.566,13.781c13.756-2.686,27.197-6.779,40.219-12.287
			c5.607-2.375,11.126-4.976,16.426-7.8H497.088z"/>
		<path id="t15" fill="#4F9962" d="M572.337,472.748c-8.201,16.775-18.774,32.16-31.548,45.91l10.175,9.6
			c13.792-14.825,25.199-31.422,34.033-49.524L572.337,472.748z"/>
		<path id="t18" fill="#ED3737" d="M490.771,205.003l-6.024,12.66c16.776,8.2,32.2,18.8,45.9,31.548l9.639-10.175
			C525.472,225.2,508.9,213.8,490.8,205.003H490.771z"/>
		<path id="t20" fill="#ED3737" d="M365.476,187.372l2.567,13.784c10.804-1.88,21.808-2.83,32.957-2.83c7.652,0,15.2,0.5,22.7,1.344
			l1.815-13.901c-8.097-0.964-16.284-1.459-24.551-1.459c-11.984-0.01-23.865,0.99-35.465,3.062H365.476z"/>
		<path id="t5" fill="#4F9962" d="M304.911,208.225l6.701,12.315c4.934-2.619,9.987-5.037,15.169-7.228
			c12.087-5.113,24.563-8.919,37.331-11.421l-2.567-13.781c-13.755,2.685-27.197,6.779-40.218,12.3
			c-5.608,2.39-11.127,4.99-16.427,7.815H304.911z"/>
		<path id="t1" fill="#4F9962" d="M429.52,186.287l-1.817,13.899c16.33,2.3,32.2,6.7,47.5,13.1c1.992,0.8,4,1.7,5.899,2.635
			l6.024-12.659c-2.145-0.995-4.301-1.967-6.485-2.891C464.223,193.4,447.1,188.7,429.5,186.287H429.52z"/>
		<path id="t12" fill="#ED3737" d="M253.787,246.799l10.176,9.639c0.733-0.757,1.464-1.517,2.211-2.264
			c12.56-12.561,26.61-23.173,41.926-31.721l-6.701-12.314c-16.491,9.188-31.617,20.605-45.136,34.1
			c-0.837,0.861-1.663,1.661-2.463,2.56H253.787z"/>
		<path id="t6" fill="#4F9962" d="M588.844,356.043c1.881,10.8,2.8,21.8,2.8,32.957c0,7.652-0.456,15.235-1.344,22.7l13.9,1.815
			c0.964-8.097,1.459-16.285,1.459-24.551c0-12.019-1.026-23.88-3.062-35.524L588.844,356.043z"/>
		<path id="t11" fill="#4F9962" d="M213.157,421.958c-1.88-10.805-2.83-21.809-2.83-32.958c0-7.653,0.457-15.235,1.344-22.734
			l-13.9-1.817c-0.964,8.097-1.459,16.286-1.459,24.551c0,12,1,23.9,3.1,35.525L213.157,421.958z"/>
		<path id="t19" fill="#4F9962" d="M372.482,591.714l1.816-13.898c-16.33-2.282-32.234-6.661-47.519-13.125
			c-1.992-0.844-3.96-1.729-5.916-2.636l-6.023,12.658c2.145,1,4.3,2,6.5,2.9c16.438,6.986,33.56,11.687,51.159,14.101H372.482z"/>
		<path id="t16" fill="#4F9962" d="M258.799,536.214l9.639-10.177c-0.757-0.733-1.517-1.464-2.264-2.211
			c-12.561-12.561-23.173-26.609-31.721-41.926l-12.314,6.7c9.188,16.5,20.6,31.601,34.1,45.101
			C257.1,534.6,257.9,535.4,258.799,536.214L258.799,536.214z"/>
	</g>
	<g id="bull">
		<path id="Outer" fill="#4F9962" d="M432.438,389c0,17.087-13.852,30.938-30.938,30.938S370.562,406.1,370.6,389
			c0.038-17.1,13.853-30.938,30.938-30.938S432.438,371.9,432.4,389H432.438z M401.5,372.602c-9.057,0-16.398,7.342-16.398,16.4
			c0,9.058,7.343,16.4,16.4,16.398s16.398-7.343,16.398-16.398C417.9,379.946,410.557,372.6,401.5,372.602z"/>
		<circle id="Bull" fill="#ED3737" cx="401.5" cy="389" r="13.7"/>
	</g>
</g>
<g id="score">
	<path id="score_1_" d="M371.787,33.895l8.835-6.745c2.192-1.72,3.035-2.833,3.035-4.249c0-1.483-1.045-2.394-2.63-2.394
		s-2.833,0.911-4.688,3.035l-4.418-3.676c2.529-3.271,5.025-5.058,9.611-5.058c5.16,0,8.7,3.1,8.7,7.52v0.068
		c0,3.777-1.956,5.732-5.464,8.262l-4.046,2.833h9.746v5.328h-18.682L371.787,33.895L371.787,33.895z M393.096,27.083v-0.067
		c0-6.677,4.249-12.275,10.959-12.275s10.894,5.5,10.9,12.208v0.067c0,6.677-4.216,12.275-10.96,12.3
		C397.244,39.3,393.1,33.8,393.1,27.083H393.096z M408.372,27.083v-0.067c0-3.743-1.787-6.475-4.384-6.475
		c-2.598,0-4.316,2.63-4.316,6.4v0.067c0,3.8,1.8,6.5,4.4,6.475c2.613,0.017,4.328-2.683,4.328-6.4H408.372z M276.408,57.935
		l2.226-5.317c2.324,1,4.3,1.3,6.2,0.689c2.056-0.659,2.978-2.089,2.462-3.694l-0.02-0.064c-0.516-1.605-2.184-2.168-4.143-1.54
		c-1.381,0.443-2.382,1.296-3.235,2.277l-4.352-0.87l-3.015-11.604l15.027-4.821l1.648,5.138l-10.115,3.245l0.899,3.5
		c0.873-0.811,1.829-1.472,3.339-1.956c4.046-1.298,8.428-0.225,10,4.656l0.021,0.064c1.607,5.009-1.256,9.221-6.715,11
		C282.689,59.9,279.5,59.4,276.4,57.935H276.408z M171.124,101.515l-2.706,3.055l-3.958-3.388l4.485-5.612l3.867-2.766l13.83,19.3
		l-5.239,3.747L171.124,101.515z M186.548,106.156l3.262-10.626c0.782-2.674,0.82-4.07-0.003-5.222
		c-0.863-1.207-2.243-1.339-3.532-0.417c-1.289,0.922-1.774,2.389-2.047,5.196l-5.731-0.42c0.154-4.132,1.145-7.038,4.874-9.706
		c4.197-3.001,8.861-2.565,11.5,1.055l0.04,0.055c2.196,3.1,1.7,5.8,0.4,9.897l-1.644,4.658l7.927-5.669l3.1,4.3l-15.195,10.869
		L186.548,106.156z M108.278,192.569l-1.795-5.159c1.994-0.534,3.407-1.417,4.534-2.932c1.61-2.165,0.96-4.456-1.294-6.51
		c0.195,1.659-0.189,3.475-1.437,5.152c-2.737,3.68-7.002,4.668-10.709,1.911l-0.054-0.04c-4.194-3.119-4.506-8.352-1.285-12.681
		c2.052-2.76,4.044-3.8,6.545-4.168c2.379-0.373,5.2,0.3,8.7,2.94h0.054c6.196,4.6,8.1,10.8,3.9,16.515
		c-2.097,2.903-4.537,4.203-7.137,4.972H108.278z M105.102,174.406l-0.054-0.041c-1.462-1.087-3.356-0.856-4.583,0.794
		c-1.229,1.65-0.891,3.5,0.6,4.543l0.055,0.04c1.434,1.1,3.3,0.8,4.502-0.854c1.202-1.654,0.86-3.488-0.522-4.482H105.102z
		 M46.521,290.226l-0.424,4.06l-5.19-0.454l0.383-7.174l1.536-4.5l22.499,7.683l-2.081,6.1L46.521,290.226z M65.91,273.936
		l-3.694,10.818l-4.721-0.471l-9.831-16.292l2.136-6.255l13.531,4.62l0.97-2.84l4.628,1.6l-0.97,2.841l4.34,1.481l-2.049,6
		L65.91,273.936z M61.314,272.366l-6.415-2.19l4.595,7.519L61.314,272.366z M33.399,398.9l0.837,3.994l-5.081,1.154l-1.827-6.948
		l0.088-4.755l23.77,0.443l-0.12,6.438l-17.667-0.344V398.9z M33.664,384.658l0.837,4l-5.081,1.152l-1.827-6.947l0.088-4.754
		l23.77,0.442l-0.12,6.44L33.664,384.658z M64.986,508.582h-0.064c-2.745,0.824-4.829-0.135-6.59-2.246
		c-0.445,2.035-1.523,3.838-3.978,4.575l-0.064,0.02c-3.617,1.087-7.336-1.563-8.859-6.635c-1.523-5.07,0.119-9.331,3.736-10.417
		l0.064-0.02c2.455-0.738,4.3,0.199,5.8,1.625c0.377-2.613,1.419-4.651,4.229-5.496l0.065-0.02c4.037-1.213,7.8,1.9,9.4,7.303
		C70.443,502.7,68.9,507.4,65,508.582H64.986z M51.701,499.404h-0.064c-1.26,0.378-2.07,1.782-1.556,3.495
		c0.515,1.699,1.9,2.399,3.2,2.068l0.064-0.02c1.421-0.427,2.157-1.846,1.652-3.524C54.485,499.8,53.1,499,51.701,499.404
		L51.701,499.404z M60.598,496.203l-0.064,0.02c-1.453,0.438-2.047,2.095-1.475,4c0.572,1.906,1.981,3,3.4,2.524l0.064-0.021
		c1.356-0.406,2.202-1.93,1.571-4.027c-0.631-2.099-2.139-2.899-3.494-2.496H60.598z M110.14,614.5l3.004,2.764l-3.461,3.894
		l-5.528-4.588l-2.693-3.918l19.591-13.47l3.649,5.31l-14.562,10.022V614.5z M115.495,595c-0.451,2.438-1.997,4.892-5.638,7.396
		l-0.056,0.036c-6.058,4.165-12.696,4.392-16.879-1.694c-1.873-2.724-2.421-5.128-2.312-7.945l5.545-0.088
		c-0.068,1.8,0.1,3.3,1.2,4.875c1.566,2.3,4,2.3,6.7,0.821c-1.485-0.493-3.068-1.247-4.386-3.165
		c-2.35-3.418-2.246-7.908,1.645-10.584l0.056-0.037c4.363-3,9.391-1.342,12.3,2.899c1.851,2.785,2.23,5.186,1.83,7.525L115.495,595
		z M105.232,589.695l-0.056,0.039c-1.389,0.955-1.775,2.774-0.61,4.5c1.165,1.725,2.937,1.899,4.3,0.994l0.055-0.038
		c1.417-0.975,1.803-2.794,0.638-4.489c-1.138-1.701-2.959-2.001-4.359-1.006H105.232z M180.896,683.969l8.644,6.683L186.178,695
		l-14.38-11.116l3.011-3.896l19.67-8.407l5.709,4.413L180.896,683.969z M295.708,741.9l4.051,0.499l-0.55,5.181l-7.166-0.516
		l-4.471-1.62l8.1-22.353l6.056,2.194l-6.02,16.638V741.9z M291.046,723.914l-4.425,3.2c-1.085-1.757-2.337-2.855-4.112-3.498
		c-2.537-0.92-4.543,0.36-5.863,3.11c1.532-0.663,3.382-0.817,5.347-0.105c4.312,1.6,6.5,5.4,4.9,9.707l-0.023,0.062
		c-1.781,4.914-6.703,6.719-11.775,4.88c-3.233-1.172-4.802-2.78-5.875-5.069c-1.042-2.172-1.169-5.087,0.312-9.177l0.023-0.063
		c2.631-7.26,8.037-10.896,14.695-8.483c3.311,1.224,5.35,3.123,6.75,5.438H291.046z M274.563,732.182l-0.022,0.062
		c-0.621,1.7,0.1,3.5,2.1,4.2c1.934,0.7,3.567-0.143,4.188-1.854l0.023-0.062c0.608-1.682-0.18-3.364-2.113-4.065
		c-1.957-0.762-3.639,0.138-4.139,1.72H274.563z M406.18,743.311l-4.264,3.958c-1.621-1.781-3.371-2.824-5.527-2.904
		c-1.854-0.068-3.067,0.83-3.122,2.278l-0.002,0.067c-0.057,1.5,1.3,2.5,3.8,2.569l2.764,0.104l0.816,3.438l-5.606,4.699
		l9.031,0.337l-0.197,5.291l-17.051-0.636l0.174-4.685l5.808-4.609c-3.343-0.866-6.002-2.854-5.853-6.866l0.002-0.065
		c0.178-4.785,4.134-7.709,9.392-7.514c4.499,0.127,7.656,1.927,9.856,4.537H406.18z M519.986,737.819l3.586-1.95l2.565,4.5
		l-6.129,3.749l-4.578,1.283l-6.416-22.894l6.203-1.736L519.986,737.819z M499.682,743.964l10.521-2.948l1.481,5.293l-17.502,4.9
		l-1.327-4.741l4.991-20.801l6.949-1.947L499.682,743.964z M600.547,692.956l3.656-10.497c0.881-2.643,0.971-4.036,0.19-5.218
		c-0.817-1.238-2.191-1.422-3.516-0.548c-1.322,0.873-1.861,2.319-2.238,5.114l-5.712-0.633c0.309-4.123,1.405-6.99,5.232-9.518
		c4.306-2.843,8.95-2.233,11.4,1.479l0.036,0.058c2.082,3.199,1.5,5.86-0.005,9.903l-1.814,4.595l8.132-5.371l2.937,4.399
		l-15.59,10.295L600.547,692.956z M672.174,611.85l-1.781,3.672l-4.725-2.193l2.803-6.614l2.979-3.707l18.535,14.888l-4.033,5
		L672.174,611.85z M689.27,613.561l-1.073-5.664c2.466-0.484,4.342-1.312,5.588-2.864c1.352-1.683,1.334-3.383,0.02-4.439
		l-0.053-0.042c-1.313-1.056-3.017-0.605-4.305,0.997c-0.908,1.131-1.273,2.396-1.445,3.685l-4.111,1.672l-8.909-8.021l9.883-12.305
		l4.206,3.379l-6.651,8.281l2.66,2.396c0.281-1.158,0.715-2.235,1.707-3.473c2.662-3.312,6.909-4.832,10.905-1.621h0.053
		c4.102,3.3,4,8.4,0.399,12.857c-2.576,3.303-5.543,4.702-8.843,5.163H689.27z M506.312,36.264l-4.065-0.366l0.381-5.196
		l7.178,0.282l4.521,1.473l-7.365,22.604l-6.123-1.995L506.312,36.264z M602.149,80.026l-3.75-1.611l1.976-4.82l6.736,2.5
		l3.84,2.805l-14.024,19.197l-5.2-3.8L602.149,80.026z M603.352,94.728l0.039-0.055c1.691-2.314,3.932-2.809,6.609-2.188
		c-0.873-1.892-1.102-3.979,0.41-6.049l0.039-0.055c2.229-3.049,6.793-3.181,11.067-0.057c4.274,3.1,5.5,7.5,3.301,10.6
		l-0.039,0.055c-1.513,2.069-3.57,2.486-5.639,2.229c1.277,2.3,1.7,4.565-0.055,6.935l-0.04,0.1
		c-2.486,3.404-7.365,3.224-11.939-0.118C602.54,102.7,600.9,98,603.4,94.728H603.352z M614.321,101.948l0.04-0.055
		c0.895-1.225,0.366-2.904-1.238-4.078c-1.607-1.174-3.367-1.165-4.263,0.061l-0.04,0.055c-0.835,1.143-0.592,2.9,1.199,4.2
		c1.75,1.269,3.48,0.969,4.28-0.183H614.321z M619.482,94.025l0.039-0.055c0.775-1.062,0.573-2.671-0.868-3.726
		c-1.444-1.055-3.02-0.785-3.795,0.277l-0.04,0.055c-0.875,1.197-0.605,2.8,0.8,3.8c1.427,1.024,2.981,0.824,3.882-0.351H619.482z
		 M685.465,176.235l-6.682-9.275l3.118-3.576l18.976,1.418l3.863,5.4l-11.603,8.356l1.754,2.435l-3.969,2.859l-1.754-2.436
		l-3.721,2.68l-3.705-5.144L685.465,176.235z M689.406,173.397l5.499-3.962l-8.791-0.608L689.406,173.397z M741.448,247.036
		l-2.189-3.445l4.352-2.868l4.153,5.861l1.592,4.481l-22.405,7.951l-2.153-6.07L741.448,247.036z M731.415,260.507l5.253,2.502
		c-1.057,2.164-1.38,4.175-0.658,6.209c0.62,1.7,1.9,2.5,3.3,2.1l0.062-0.022c1.431-0.508,1.826-2.115,1.003-4.436l-0.925-2.605
		l2.894-2.029l6.424,3.48l-3.021-8.517l4.99-1.771l5.707,16.1l-4.418,1.567l-6.429-3.694c0.43,3.426-0.438,6.632-4.22,7.974
		l-0.062,0.023c-4.514,1.602-8.69-0.996-10.449-5.953c-1.553-4.335-1.065-7.935,0.535-10.928H731.415z M753.729,370.365
		c1.734-1.772,4.387-2.947,8.804-2.994l0.067-0.001c7.352-0.078,13,3.4,13.101,10.82c0.035,3.305-0.852,5.607-2.513,7.885
		l-4.651-3.02c1.062-1.462,1.757-2.817,1.735-4.706c-0.028-2.765-2.101-4.126-5.071-4.397c0.958,1.2,1.899,2.7,1.899,5.072
		c0.044,4.147-2.548,7.817-7.269,7.868h-0.066c-5.295,0.057-8.543-4.125-8.598-9.284c-0.095-3.308,0.933-5.508,2.533-7.243H753.729z
		 M759.266,380.524l0.067-0.001c1.687-0.018,3.021-1.314,2.999-3.371s-1.35-3.257-3.035-3.238h-0.067
		c-1.72,0.019-3.056,1.314-3.032,3.4c0.021,1.986,1.303,3.186,3.103,3.21H759.266z M735.133,496.857l-0.289,4.07l-5.202-0.279
		l0.145-7.185l1.387-4.548l22.741,6.93l-1.877,6.161L735.133,496.857z M743.758,488.912l-0.063-0.021
		c-6.388-1.944-10.503-7.642-8.548-14.062c1.956-6.419,8.467-8.807,14.854-6.86l0.064,0.021c6.387,1.899,10.5,7.6,8.5,14.1
		c-1.92,6.41-8.465,8.811-14.765,6.822H743.758z M748.211,474.3l-0.064-0.02c-3.579-1.091-6.715-0.179-7.471,2.3
		c-0.758,2.5,1.3,4.9,4.9,5.997l0.063,0.02c3.613,1.101,6.7,0.2,7.473-2.306c0.736-2.491-1.312-4.891-4.912-5.991H748.211z"/>
</g>
</svg>
